<svg xmlns="http://www.w3.org/2000/svg" viewBox="0 0 101 101"><g id="Circles"><circle cx="50.5" cy="50.5" r="50" style="fill:none;stroke:#000;stroke-linecap:round;stroke-linejoin:round;opacity:0.2"/><path d="M30,17.53a45.05,45.05,0,1,0,10.83-5.29" transform="translate(-4.5 -4.5)" style="fill:none;stroke:#000;stroke-linecap:round;stroke-linejoin:round;opacity:0.2"/></g><g id="Inradius"><line x1="85.72" y1="78.59" x2="70.31" y2="66.3" style="fill:none;stroke:#000;stroke-linecap:round;stroke-linejoin:round"/><line x1="63.35" y1="60.74" x2="50.5" y2="50.5" style="fill:none;stroke:#000;stroke-linecap:round;stroke-linejoin:round"/><text transform="translate(65.32 67.42)" style="font-size:12px;fill:#231f20;font-family:STIXTwoText-Italic, STIX Two Text;font-style:italic">r</text></g><g id="Circumradius"><line x1="50.5" y1="50.5" x2="42.82" y2="66.44" style="fill:none;stroke:#000;stroke-linecap:round;stroke-linejoin:round"/><line x1="36.31" y1="79.96" x2="28.81" y2="95.55" style="fill:none;stroke:#000;stroke-linecap:round;stroke-linejoin:round"/><text transform="translate(36.12 76.96)" style="font-size:12px;fill:#231f20;font-family:STIXTwoText-Italic, STIX Two Text;font-style:italic">R</text></g><g id="Side"><line x1="36.37" y1="7.3" x2="50.5" y2="0.5" style="fill:none;stroke:#000;stroke-linecap:round;stroke-linejoin:round"/><line x1="11.41" y1="19.33" x2="25.37" y2="12.6" style="fill:none;stroke:#000;stroke-linecap:round;stroke-linejoin:round"/><text transform="translate(27.74 12.71)" style="font-size:12px;fill:#050606;font-family:STIXTwoText-Italic, STIX Two Text;font-style:italic">a</text></g><g id="Long_Diagonal" data-name="Long Diagonal"><line x1="20.26" y1="52.71" x2="1.75" y2="61.63" style="fill:none;stroke:#000;stroke-linecap:round;stroke-linejoin:round"/><line x1="89.59" y1="19.33" x2="31.8" y2="47.16" style="fill:none;stroke:#000;stroke-linecap:round;stroke-linejoin:round"/><text transform="translate(22.79 54.04)" style="font-size:12px;fill:#231f20;font-family:STIXTwoText-Italic, STIX Two Text;font-style:italic">d</text></g><g id="Short_Diagonal" data-name="Short Diagonal"><line x1="89.59" y1="19.33" x2="74.71" y2="19.33" style="fill:none;stroke:#000;stroke-linecap:round;stroke-linejoin:round"/><line x1="65.39" y1="19.33" x2="11.41" y2="19.33" style="fill:none;stroke:#000;stroke-linecap:round;stroke-linejoin:round"/><text transform="translate(67.9 22.13)" style="font-size:12px;fill:#231f20;font-family:STIXTwoText-Italic, STIX Two Text;font-style:italic">s</text></g><g id="Height"><line x1="50.5" y1="35.81" x2="50.5" y2="95.55" style="fill:none;stroke:#000;stroke-linecap:round;stroke-linejoin:round"/><line x1="50.5" y1="21.48" x2="50.5" y2="0.5" style="fill:none;stroke:#000;stroke-linecap:round;stroke-linejoin:round"/><text transform="translate(47.18 32.91)" style="font-size:12px;fill:#231f20;font-family:STIXTwoText-Italic, STIX Two Text;font-style:italic">h</text></g><g id="Outline"><circle cx="50.5" cy="50.5" r="2"/><polyline points="50.5 0.5 89.59 19.33 99.25 61.63 72.19 95.55 28.81 95.55 1.75 61.63 11.41 19.33" style="fill:none;stroke:#000;stroke-linecap:round;stroke-linejoin:round"/></g></svg>