<svg xmlns="http://www.w3.org/2000/svg" viewBox="0 0 101 101"><g id="Circles"><circle cx="50.5" cy="50.5" r="50" style="fill:none;stroke:#000;stroke-linecap:round;stroke-linejoin:round;opacity:0.2"/></g><g id="Inradius"><line x1="88" y1="72.15" x2="71.75" y2="62.77" style="fill:none;stroke:#000;stroke-linecap:round;stroke-linejoin:round"/><line x1="64.29" y1="58.46" x2="50.5" y2="50.5" style="fill:none;stroke:#000;stroke-linecap:round;stroke-linejoin:round"/><text transform="translate(66.46 64.2)" style="font-size:12px;fill:#231f20;font-family:STIXTwoText-Italic, STIX Two Text;font-style:italic">r</text></g><g id="Circumradius"><line x1="50.5" y1="50.5" x2="41.69" y2="65.76" style="fill:none;stroke:#000;stroke-linecap:round;stroke-linejoin:round"/><line x1="34.02" y1="79.05" x2="25.5" y2="93.8" style="fill:none;stroke:#000;stroke-linecap:round;stroke-linejoin:round"/><text transform="translate(34.46 76.09)" style="font-size:12px;fill:#231f20;font-family:STIXTwoText-Italic, STIX Two Text;font-style:italic">R</text></g><g id="Side"><path d="M14.74,39.06A43.34,43.34,0,1,0,21.3,27.82" transform="translate(-4.5 -4.5)" style="fill:none;stroke:#000;stroke-linecap:round;stroke-linejoin:round;opacity:0.2"/><line x1="9.8" y1="34.39" x2="0.5" y2="50.5" style="fill:none;stroke:#000;stroke-linecap:round;stroke-linejoin:round"/><line x1="16.3" y1="23.13" x2="25.5" y2="7.2" style="fill:none;stroke:#000;stroke-linecap:round;stroke-linejoin:round"/><path d="M21.3,27.82a3,3,0,0,0-.5-.19" transform="translate(-4.5 -4.5)" style="fill:none;stroke:#ed1c24;stroke-linecap:round;stroke-linejoin:round;stroke-width:0px"/><path d="M14.3,38.89l.44.17" transform="translate(-4.5 -4.5)" style="fill:none;stroke:#ed1c24;stroke-linecap:round;stroke-linejoin:round;stroke-width:0px"/><text transform="translate(9.79 31.65)" style="font-size:12px;fill:#231f20;font-family:STIXTwoText-Italic, STIX Two Text;font-style:italic">a</text></g><g id="Long_Diagonal" data-name="Long Diagonal"><line x1="100.5" y1="50.5" x2="30.65" y2="50.5" style="fill:none;stroke:#000;stroke-linecap:round;stroke-linejoin:round"/><line x1="19.93" y1="50.5" x2="0.5" y2="50.5" style="fill:none;stroke:#000;stroke-linecap:round;stroke-linejoin:round"/><text transform="translate(22.17 54.66)" style="font-size:12px;fill:#231f20;font-family:STIXTwoText-Italic, STIX Two Text;font-style:italic">d</text></g><g id="Short_Diagonal" data-name="Short Diagonal"><line x1="75.5" y1="7.2" x2="30.48" y2="33.19" style="fill:none;stroke:#000;stroke-linecap:round;stroke-linejoin:round"/><line x1="20.23" y1="39.11" x2="0.5" y2="50.5" style="fill:none;stroke:#000;stroke-linecap:round;stroke-linejoin:round"/><text transform="translate(23.22 38.84)" style="font-size:12px;fill:#231f20;font-family:STIXTwoText-Italic, STIX Two Text;font-style:italic">s</text></g><g id="Height"><line x1="50.5" y1="28.81" x2="50.5" y2="7.2" style="fill:none;stroke:#000;stroke-linecap:round;stroke-linejoin:round"/><line x1="50.5" y1="43.14" x2="50.5" y2="93.8" style="fill:none;stroke:#000;stroke-linecap:round;stroke-linejoin:round"/><text transform="translate(47.18 40.23)" style="font-size:12px;fill:#231f20;font-family:STIXTwoText-Italic, STIX Two Text;font-style:italic">h</text></g><g id="Outline"><polyline points="25.5 7.2 75.5 7.2 100.5 50.5 75.5 93.8 25.5 93.8 0.5 50.5" style="fill:none;stroke:#000;stroke-linecap:round;stroke-linejoin:round"/><circle cx="50.5" cy="50.5" r="2"/></g></svg>