<?xml version="1.0" encoding="utf-8"?>
<!-- Generator: Adobe Illustrator 25.0.0, SVG Export Plug-In . SVG Version: 6.00 Build 0)  -->
<svg version="1.1" id="Layer_1" xmlns="http://www.w3.org/2000/svg" xmlns:xlink="http://www.w3.org/1999/xlink" x="0px" y="0px"
	 viewBox="0 0 100 100" style="enable-background:new 0 0 100 100;" xml:space="preserve">
<style type="text/css">
	.st0{fill:#F0EADB;}
</style>
<path d="M50.2,14.8c-0.7,0-1.4,0.2-2,0.5l-30,17.3c-1.2,0.7-2,2-2,3.5v34.7c0,1.4,0.8,2.8,2,3.5l30,17.3c1.2,0.7,2.8,0.7,4,0
	l30-17.3c1.2-0.7,2-2,2-3.4V36.1c0-1.4-0.8-2.7-2-3.5l-7.5-4.3c-1.2-0.7-2.8-0.7-4,0l-9.6,5.5c0.4-0.6,0.6-1.3,0.6-2v-8.7
	c0-1.4-0.8-2.7-2-3.5l-7.5-4.3C51.5,15,50.9,14.8,50.2,14.8z"/>
<path class="st0" d="M50.2,83.1c-0.4,0-0.7-0.1-1-0.3l-30-17.3c-0.6-0.3-1-1-1-1.7V29.1c0-0.7,0.4-1.4,1-1.7l30-17.3
	c0.6-0.4,1.4-0.4,2,0l7.5,4.3c0.6,0.4,1,1,1,1.7v8.7c0,0.7-0.4,1.4-1,1.7L37.2,38.9v15l13,7.5l13-7.5v-4l-12,6.9
	c-0.6,0.4-1.4,0.4-2,0l-7.5-4.3c-0.6-0.4-1-1-1-1.7v-8.7c0-0.7,0.4-1.4,1-1.7l30-17.3c0.6-0.4,1.4-0.4,2,0l7.5,4.3
	c0.6,0.4,1,1,1,1.7v34.7c0,0.7-0.4,1.4-1,1.7l-30,17.3C50.8,83,50.5,83.1,50.2,83.1z"/>
<path d="M50.2,11.8l7.5,4.3v8.7l-22.5,13v17.3l15,8.7l15-8.7v-8.7l-15,8.7l-7.5-4.3v-8.7l30-17.3l7.5,4.3v34.7l-30,17.3l-30-17.3
	V29.1L50.2,11.8 M50.2,7.8c-0.7,0-1.4,0.2-2,0.5l-30,17.3c-1.2,0.7-2,2-2,3.5v34.7c0,1.4,0.8,2.8,2,3.5l30,17.3c1.2,0.7,2.8,0.7,4,0
	l30-17.3c1.2-0.7,2-2,2-3.4V29.1c0-1.4-0.8-2.7-2-3.5l-7.5-4.3c-1.2-0.7-2.8-0.7-4,0l-9.6,5.5c0.4-0.6,0.6-1.3,0.6-2.1v-8.7
	c0-1.4-0.8-2.7-2-3.5l-7.5-4.3C51.5,8,50.9,7.8,50.2,7.8z M39.2,40.1L39.2,40.1v0.1V40.1L39.2,40.1z M39.2,52.8L39.2,52.8L39.2,52.8
	L39.2,52.8z M50.2,59.2L50.2,59.2L50.2,59.2L50.2,59.2z"/>
</svg>
