<svg xmlns="http://www.w3.org/2000/svg" viewBox="0 0 87.09 79.28"><defs><style>.cls-1{fill:#fff;}.cls-2{fill:#bbb;}.cls-3{fill:#ddd;}</style></defs><g id="Layer_3" data-name="Layer 3"><polygon points="63.54 5 23.54 5 3.54 39.64 23.54 74.28 63.54 74.28 83.54 39.64 63.54 5"/></g><g id="Layer_1" data-name="Layer 1"><polygon class="cls-1" points="63.54 5 23.54 5 28.54 13.66 68.54 13.66 63.54 5"/><polygon class="cls-2" points="58.54 65.62 68.54 48.3 58.54 48.3 53.54 56.96 58.54 65.62"/><polygon class="cls-3" points="28.54 13.66 13.54 39.64 23.54 39.64 33.54 22.32 63.54 22.32 68.54 13.66 28.54 13.66"/><polygon class="cls-2" points="28.54 13.66 23.54 5 3.54 39.64 23.54 74.28 28.54 65.62 13.54 39.64 28.54 13.66"/><polygon class="cls-2" points="38.54 30.98 33.54 39.64 38.54 48.3 43.54 39.64 38.54 30.98"/><polygon class="cls-1" points="53.54 56.96 33.54 56.96 23.54 39.64 13.54 39.64 28.54 65.62 58.54 65.62 53.54 56.96"/><polygon class="cls-1" points="78.54 30.98 38.54 30.98 43.54 39.64 83.54 39.64 78.54 30.98"/><polygon class="cls-3" points="73.54 39.64 43.54 39.64 38.54 48.3 68.54 48.3 58.54 65.62 28.54 65.62 23.54 74.28 63.54 74.28 83.54 39.64 73.54 39.64"/></g><g id="Layer_2" data-name="Layer 2"><path d="M65,15.36a9.62,9.62,0,0,1,7.5,4.33l15,26a9.64,9.64,0,0,1,0,8.66l-15,26A9.62,9.62,0,0,1,65,84.64H35a9.6,9.6,0,0,1-7.5-4.33l-15-26a9.57,9.57,0,0,1,0-8.66l15-26A9.6,9.6,0,0,1,35,15.36H65m0-5H35a14.45,14.45,0,0,0-11.83,6.83l-15,26a14.44,14.44,0,0,0,0,13.66l15,26A14.45,14.45,0,0,0,35,89.64H65a14.45,14.45,0,0,0,11.83-6.83l15-26a14.44,14.44,0,0,0,0-13.66l-15-26A14.45,14.45,0,0,0,65,10.36Z" transform="translate(-6.46 -10.36)"/></g></svg>