<svg xmlns="http://www.w3.org/2000/svg" viewBox="0 0 540.5 84.28"><g id="Long_Logo" data-name="Long Logo"><path d="M531,44.77l7.5-4.33a4,4,0,0,0,2-3.46V28.32a4,4,0,0,0-2-3.46l-30-17.32a4,4,0,0,0-4,0l-30,17.32A3.94,3.94,0,0,0,472.75,27,3.94,3.94,0,0,0,471,24.86L441,7.54a4,4,0,0,0-4,0l-7.5,4.33a4,4,0,0,0-2,3.46V24a4,4,0,0,0,.57,2.06l-9.57-5.52a4,4,0,0,0-4,0L407,24.86A3.94,3.94,0,0,0,405.25,27a3.94,3.94,0,0,0-1.75-2.09l-30-17.32a4,4,0,0,0-4,0L362,11.87a4,4,0,0,0-2,3.46V24a4,4,0,0,0,.57,2.06L351,20.53a4,4,0,0,0-4,0l-7.5,4.33A3.94,3.94,0,0,0,337.75,27,3.94,3.94,0,0,0,336,24.86L306,7.54a4,4,0,0,0-4,0L272,24.86A3.94,3.94,0,0,0,270.25,27a3.94,3.94,0,0,0-1.75-2.09L261,20.53a4,4,0,0,0-4,0l-7.5,4.33a4,4,0,0,0-2,3.46V52l-11,6.35L225.5,52V28.32a4,4,0,0,0-2-3.46L216,20.53a4,4,0,0,0-4,0l-7.5,4.33A3.94,3.94,0,0,0,202.75,27,3.94,3.94,0,0,0,201,24.86L171,7.54a4,4,0,0,0-4,0L137,24.86A3.94,3.94,0,0,0,135.25,27a3.94,3.94,0,0,0-1.75-2.09l-30-17.32a4,4,0,0,0-4,0l-30,17.32A3.94,3.94,0,0,0,67.75,27,3.94,3.94,0,0,0,66,24.86l-7.5-4.33a4,4,0,0,0-4,0l-9.57,5.52A4,4,0,0,0,45.5,24V15.33a4,4,0,0,0-2-3.46L36,7.54a4,4,0,0,0-4,0L2,24.86a4,4,0,0,0-2,3.46V63a4,4,0,0,0,2,3.47L32,83.75a4,4,0,0,0,4,0L66,66.43a4,4,0,0,0,1.75-2.1,4,4,0,0,0,1.75,2.1l30,17.32a4,4,0,0,0,4,0l30-17.32a4,4,0,0,0,1.75-2.1,4,4,0,0,0,1.75,2.1l30,17.32a4,4,0,0,0,4,0l30-17.32a4,4,0,0,0,1.75-2.1,4,4,0,0,0,1.75,2.1l30,17.32a4,4,0,0,0,4,0l30-17.32a4,4,0,0,0,1.75-2.1,4,4,0,0,0,1.75,2.1l30,17.32a4,4,0,0,0,4,0l30-17.32a4,4,0,0,0,1.75-2.1,4,4,0,0,0,1.75,2.1l30,17.32a4,4,0,0,0,4,0l7.5-4.33A4,4,0,0,0,383,76V67.29a4,4,0,0,0-.57-2.06L392,70.76a4,4,0,0,0,4,0l7.5-4.33a4,4,0,0,0,1.75-2.1,4,4,0,0,0,1.75,2.1l30,17.32a4,4,0,0,0,4,0l7.5-4.33a4,4,0,0,0,2-3.47V67.29a4,4,0,0,0-.57-2.06l9.57,5.53a4,4,0,0,0,4,0l7.5-4.33a4,4,0,0,0,1.75-2.1,4,4,0,0,0,1.75,2.1l30,17.32a4,4,0,0,0,4,0l30-17.32a4,4,0,0,0,2-3.47V54.3a4,4,0,0,0-2-3.46L531,46.51a4,4,0,0,0-2-.54v-.66A4,4,0,0,0,531,44.77ZM23,52v-.08l.07.12Zm0-12.62v-.08l.07,0Zm11,19-.07,0h.14ZM101.5,33h-.07l.07,0,.07,0ZM180,52l-11,6.35L158,52V39.29l11-6.35,11,6.35Z"/><path d="M34,75.28A2,2,0,0,1,33,75L3,57.69A2,2,0,0,1,2,56V21.32a2,2,0,0,1,1-1.73L33,2.27a2,2,0,0,1,2,0L42.5,6.6a2,2,0,0,1,1,1.73V17a2,2,0,0,1-1,1.73L21,31.14v15l13,7.5,13-7.5v-4L35,49a2,2,0,0,1-2,0L25.5,44.7a2,2,0,0,1-1-1.73V34.31a2,2,0,0,1,1-1.73l30-17.32a2,2,0,0,1,2,0L65,19.59a2,2,0,0,1,1,1.73V56a2,2,0,0,1-1,1.73L35,75A2,2,0,0,1,34,75.28Z" style="fill:#f0eadb"/><path d="M34,4l7.5,4.33V17L19,30V47.3L34,56,49,47.3V38.64L34,47.3,26.5,43V34.31L56.5,17,64,21.32V56L34,73.28,4,56V21.32L34,4m0-4a4,4,0,0,0-2,.54L2,17.86a4,4,0,0,0-2,3.46V56a4,4,0,0,0,2,3.47L32,76.75a4,4,0,0,0,4,0L66,59.43A4,4,0,0,0,68,56V21.32a4,4,0,0,0-2-3.46l-7.5-4.33a4,4,0,0,0-4,0l-9.57,5.52A4,4,0,0,0,45.5,17V8.33a4,4,0,0,0-2-3.46L36,.54A4,4,0,0,0,34,0ZM23,32.29l.07,0-.07.12v-.08ZM23,45v-.08l.07.12L23,45Zm11,6.35-.07,0h.14l-.07,0Z"/><path d="M101.5,75.28a2,2,0,0,1-1-.27l-30-17.32a2,2,0,0,1-1-1.73V21.32a2,2,0,0,1,1-1.73l30-17.32a2,2,0,0,1,2,0l30,17.32a2,2,0,0,1,1,1.73V30a2,2,0,0,1-1,1.73L125,36a2,2,0,0,1-2,0L101.5,23.63l-13,7.51v4l12-6.93a2,2,0,0,1,2,0l7.5,4.33a2,2,0,0,1,1,1.73V43a2,2,0,0,1-1,1.73L98,51.63l3.5,2L123,41.24a2,2,0,0,1,2,0l7.5,4.33a2,2,0,0,1,1,1.73V56a2,2,0,0,1-1,1.73L102.5,75A2,2,0,0,1,101.5,75.28Z" style="fill:#f0eadb"/><path d="M101.5,4l30,17.32V30L124,34.31l-22.5-13L86.5,30v8.66l15-8.66,7.5,4.33V43L94,51.63,101.5,56,124,43l7.5,4.33V56l-30,17.32L71.5,56V21.32L101.5,4m0-4a4,4,0,0,0-2,.54l-30,17.32a4,4,0,0,0-2,3.46V56a4,4,0,0,0,2,3.47l30,17.32a4,4,0,0,0,4,0l30-17.32a4,4,0,0,0,2-3.47V47.3a4,4,0,0,0-2-3.46L126,39.51a4,4,0,0,0-4,0L112.43,45A4,4,0,0,0,113,43V34.31a4,4,0,0,0-.57-2.06L122,37.78a4,4,0,0,0,4,0l7.5-4.34a4,4,0,0,0,2-3.46V21.32a4,4,0,0,0-2-3.46L103.5.54a4,4,0,0,0-2-.54Zm-.07,26,.07,0,.07,0h-.14Z"/><path d="M169,75.28a2,2,0,0,1-1-.27L138,57.69A2,2,0,0,1,137,56V21.32a2,2,0,0,1,1-1.73L168,2.27a2,2,0,0,1,2,0l30,17.32a2,2,0,0,1,1,1.73V56a2,2,0,0,1-1,1.73L170,75A2,2,0,0,1,169,75.28Zm0-21.63,13-7.5v-15l-13-7.51-13,7.51v15Z" style="fill:#f0eadb"/><path d="M169,4l30,17.32V56L169,73.28,139,56V21.32L169,4m0,52,15-8.66V30l-15-8.66L154,30V47.3L169,56m0-56a4,4,0,0,0-2,.54L137,17.86a4,4,0,0,0-2,3.46V56a4,4,0,0,0,2,3.47l30,17.32a4,4,0,0,0,4,0l30-17.32A4,4,0,0,0,203,56V21.32a4,4,0,0,0-2-3.46L171,.54A4,4,0,0,0,169,0ZM158,32.29l11-6.35,11,6.35V45l-11,6.35L158,45V32.29Z"/><path d="M236.5,75.28a2,2,0,0,1-1-.27l-30-17.32a2,2,0,0,1-1-1.73V21.32a2,2,0,0,1,1-1.73l7.5-4.33a2,2,0,0,1,2,0l7.5,4.33a2,2,0,0,1,1,1.73V46.15l13,7.5,13-7.5V21.32a2,2,0,0,1,1-1.73l7.5-4.33a2,2,0,0,1,2,0l7.5,4.33a2,2,0,0,1,1,1.73V56a2,2,0,0,1-1,1.73L237.5,75A2,2,0,0,1,236.5,75.28Z" style="fill:#f0eadb"/><path d="M259,17l7.5,4.33V56l-30,17.32L206.5,56V21.32L214,17l7.5,4.33v26l15,8.66,15-8.66v-26L259,17m0-4a4,4,0,0,0-2,.54l-7.5,4.33a4,4,0,0,0-2,3.46V45l-11,6.35L225.5,45V21.32a4,4,0,0,0-2-3.46L216,13.53a4,4,0,0,0-4,0l-7.5,4.33a4,4,0,0,0-2,3.46V56a4,4,0,0,0,2,3.47l30,17.32a4,4,0,0,0,4,0l30-17.32a4,4,0,0,0,2-3.47V21.32a4,4,0,0,0-2-3.46L261,13.53a4,4,0,0,0-2-.54Z"/><path d="M304,75.28a2,2,0,0,1-1-.27L273,57.69A2,2,0,0,1,272,56V47.3a2,2,0,0,1,1-1.73l34.5-19.92-3.5-2L282.5,36a2,2,0,0,1-2,0L273,31.71A2,2,0,0,1,272,30V21.32a2,2,0,0,1,1-1.73L303,2.27a2,2,0,0,1,2,0l30,17.32a2,2,0,0,1,1,1.73V56a2,2,0,0,1-1,1.73L305,75A2,2,0,0,1,304,75.28Zm0-21.63,13-7.5v-4l-16.5,9.52Z" style="fill:#f0eadb"/><path d="M304,4l30,17.32V56L304,73.28,274,56V47.3l37.5-21.65L304,21.32l-22.5,13L274,30V21.32L304,4m0,52,15-8.66V38.64l-22.5,13L304,56m0-56a4,4,0,0,0-2,.54L272,17.86a4,4,0,0,0-2,3.46V30a4,4,0,0,0,2,3.46l7.5,4.34a4.07,4.07,0,0,0,2,.53h.07L272,43.84a4,4,0,0,0-2,3.46V56a4,4,0,0,0,2,3.47l30,17.32a4,4,0,0,0,4,0l30-17.32A4,4,0,0,0,338,56V21.32a4,4,0,0,0-2-3.46L306,.54A4,4,0,0,0,304,0Z"/><path d="M371.5,75.28a2,2,0,0,1-1-.27l-30-17.32a2,2,0,0,1-1-1.73V21.32a2,2,0,0,1,1-1.73l7.5-4.33a2,2,0,0,1,2,0l34.5,19.92v-4L363,18.72A2,2,0,0,1,362,17V8.33a2,2,0,0,1,1-1.73l7.5-4.33a2,2,0,0,1,2,0l30,17.32a2,2,0,0,1,1,1.73V56a2,2,0,0,1-1,1.73L395,62a2,2,0,0,1-2,0L358.5,42.11v4L380,58.56a2,2,0,0,1,1,1.73V69a2,2,0,0,1-1,1.73L372.5,75A2,2,0,0,1,371.5,75.28Z" style="fill:#f0eadb"/><path d="M371.5,4l30,17.32V56L394,60.29,356.5,38.64V47.3l22.5,13V69l-7.5,4.33L341.5,56V21.32L349,17l37.5,21.65V30L364,17V8.33L371.5,4m0-4a4,4,0,0,0-2,.54L362,4.87a4,4,0,0,0-2,3.46V17a4,4,0,0,0,.57,2.06L351,13.53a4,4,0,0,0-4,0l-7.5,4.33a4,4,0,0,0-2,3.46V56a4,4,0,0,0,2,3.47l30,17.32a4,4,0,0,0,4,0l7.5-4.33A4,4,0,0,0,383,69V60.29a4,4,0,0,0-.57-2.06L392,63.76a4,4,0,0,0,4,0l7.5-4.33a4,4,0,0,0,2-3.47V21.32a4,4,0,0,0-2-3.46L373.5.54a4,4,0,0,0-2-.54Z"/><path d="M439,75.28a2,2,0,0,1-1-.27L408,57.69A2,2,0,0,1,407,56V21.32a2,2,0,0,1,1-1.73l7.5-4.33a2,2,0,0,1,2,0L452,35.18v-4L430.5,18.72a2,2,0,0,1-1-1.73V8.33a2,2,0,0,1,1-1.73L438,2.27a2,2,0,0,1,2,0l30,17.32a2,2,0,0,1,1,1.73V56a2,2,0,0,1-1,1.73L462.5,62a2,2,0,0,1-2,0L426,42.11v4l21.5,12.41a2,2,0,0,1,1,1.73V69a2,2,0,0,1-1,1.73L440,75A2,2,0,0,1,439,75.28Z" style="fill:#f0eadb"/><path d="M439,4l30,17.32V56l-7.5,4.33L424,38.64V47.3l22.5,13V69L439,73.28,409,56V21.32L416.5,17,454,38.64V30L431.5,17V8.33L439,4m0-4a4,4,0,0,0-2,.54l-7.5,4.33a4,4,0,0,0-2,3.46V17a4,4,0,0,0,.57,2.06l-9.57-5.52a4,4,0,0,0-4,0L407,17.86a4,4,0,0,0-2,3.46V56a4,4,0,0,0,2,3.47l30,17.32a4,4,0,0,0,4,0l7.5-4.33a4,4,0,0,0,2-3.47V60.29a4,4,0,0,0-.57-2.06l9.57,5.53a4,4,0,0,0,4,0l7.5-4.33A4,4,0,0,0,473,56V21.32a4,4,0,0,0-2-3.46L441,.54A4,4,0,0,0,439,0Z"/><path d="M506.5,75.28a2,2,0,0,1-1-.27l-30-17.32a2,2,0,0,1-1-1.73V47.3a2,2,0,0,1,1-1.73l7.5-4.33a2,2,0,0,1,2,0l12,6.93V29.11L485,36a2,2,0,0,1-2,0l-7.5-4.33a2,2,0,0,1-1-1.73V21.32a2,2,0,0,1,1-1.73l30-17.32a2,2,0,0,1,2,0l30,17.32a2,2,0,0,1,1,1.73V30a2,2,0,0,1-1,1.73L530,36a2,2,0,0,1-2,0l-12-6.93V48.17l12-6.93a2,2,0,0,1,2,0l7.5,4.33a2,2,0,0,1,1,1.73V56a2,2,0,0,1-1,1.73L507.5,75A2,2,0,0,1,506.5,75.28Z" style="fill:#f0eadb"/><path d="M506.5,4l30,17.32V30L529,34.31l-15-8.66v26L529,43l7.5,4.33V56l-30,17.32L476.5,56V47.3L484,43l15,8.66v-26l-15,8.66L476.5,30V21.32L506.5,4m0-4a4,4,0,0,0-2,.54l-30,17.32a4,4,0,0,0-2,3.46V30a4,4,0,0,0,2,3.46l7.5,4.34a4,4,0,0,0,4,0l9-5.2V44.7l-9-5.19a4,4,0,0,0-4,0l-7.5,4.33a4,4,0,0,0-2,3.46V56a4,4,0,0,0,2,3.47l30,17.32a4,4,0,0,0,4,0l30-17.32a4,4,0,0,0,2-3.47V47.3a4,4,0,0,0-2-3.46L531,39.51a4,4,0,0,0-4,0l-9,5.19V32.58l9,5.2a4,4,0,0,0,4,0l7.5-4.34a4,4,0,0,0,2-3.46V21.32a4,4,0,0,0-2-3.46L508.5.54a4,4,0,0,0-2-.54Z"/></g></svg>