<svg xmlns="http://www.w3.org/2000/svg" viewBox="0 0 101 101"><g id="Circles"><circle cx="50.5" cy="50.5" r="50" style="fill:none;stroke:#000;stroke-linecap:round;stroke-linejoin:round;opacity:0.2"/><path d="M30.33,17.31a45.06,45.06,0,1,0,10.17-5" transform="translate(-4.5 -4.5)" style="fill:none;stroke:#000;stroke-linecap:round;stroke-linejoin:round;opacity:0.2"/></g><g id="Apothem"><line x1="50.5" y1="67.09" x2="50.5" y2="50.5" style="fill:none;stroke:#000;stroke-linecap:round;stroke-linejoin:round"/><line x1="50.5" y1="78.78" x2="50.5" y2="95.55" style="fill:none;stroke:#000;stroke-linecap:round;stroke-linejoin:round"/><text transform="translate(47.29 75.82)" style="font-size:12px;fill:#231f20;font-family:STIXTwoText-Italic, STIX Two Text;font-style:italic">a</text></g><g id="Circumradius"><line x1="50.5" y1="50.5" x2="42.85" y2="66.39" style="fill:none;stroke:#000;stroke-linecap:round;stroke-linejoin:round"/><line x1="36.37" y1="79.84" x2="28.81" y2="95.55" style="fill:none;stroke:#000;stroke-linecap:round;stroke-linejoin:round"/><text transform="translate(35.89 76.84)" style="font-size:12px;fill:#231f20;font-family:STIXTwoText-Italic, STIX Two Text;font-style:italic">R</text></g><g id="Side"><line x1="50.5" y1="0.5" x2="36.06" y2="7.46" style="fill:none;stroke:#000;stroke-linecap:round;stroke-linejoin:round"/><line x1="25.85" y1="12.37" x2="11.41" y2="19.33" style="fill:none;stroke:#000;stroke-linecap:round;stroke-linejoin:round"/><text transform="translate(28.81 12.72)" style="font-size:12px;fill:#231f20;font-family:STIXTwoText-Italic, STIX Two Text;font-style:italic">s</text></g><g id="Outline"><circle cx="50.5" cy="50.5" r="2"/><polyline points="50.5 0.5 89.59 19.33 99.25 61.63 72.19 95.55 28.81 95.55 1.75 61.63 11.41 19.33" style="fill:none;stroke:#000;stroke-linecap:round;stroke-linejoin:round"/></g></svg>