<svg xmlns="http://www.w3.org/2000/svg" viewBox="0 0 101 101"><g id="Circles"><path d="M16.49,23.11a50,50,0,1,0,6.68-6.67" transform="translate(-4.5 -4.5)" style="fill:none;stroke:#231f20;stroke-linecap:round;stroke-linejoin:round;opacity:0.2"/><path d="M18.1,27.2A46.12,46.12,0,1,0,27.36,18" transform="translate(-4.5 -4.5)" style="fill:none;stroke:#231f20;stroke-linecap:round;stroke-linejoin:round;opacity:0.2"/></g><g id="Inradius"><line x1="83.17" y1="83.17" x2="68.9" y2="68.9" style="fill:none;stroke:#231f20;stroke-linecap:round;stroke-linejoin:round"/><line x1="62.41" y1="62.41" x2="50.5" y2="50.5" style="fill:none;stroke:#231f20;stroke-linecap:round;stroke-linejoin:round"/><text transform="translate(64.05 69.71)" style="font-size:12px;fill:#231f20;font-family:STIXTwoText-Italic, STIX Two Text;font-style:italic">r</text></g><g id="Circumradius"><line x1="50.5" y1="50.5" x2="43.71" y2="66.9" style="fill:none;stroke:#231f20;stroke-linecap:round;stroke-linejoin:round"/><line x1="38.06" y1="80.54" x2="31.36" y2="96.7" style="fill:none;stroke:#231f20;stroke-linecap:round;stroke-linejoin:round"/><text transform="translate(37.4 77.54)" style="font-size:12px;fill:#231f20;font-family:STIXTwoText-Italic, STIX Two Text;font-style:italic">R</text></g><g id="Side"><line x1="31.36" y1="4.3" x2="22.59" y2="13.07" style="fill:none;stroke:#231f20;stroke-linecap:round;stroke-linejoin:round"/><line x1="13.27" y1="22.39" x2="4.3" y2="31.36" style="fill:none;stroke:#231f20;stroke-linecap:round;stroke-linejoin:round"/><text transform="translate(14.62 20.63)" style="font-size:12px;fill:#231f20;font-family:STIXTwoText-Italic, STIX Two Text;font-style:italic">a</text></g><g id="Long_Diagonal" data-name="Long Diagonal"><line x1="96.7" y1="31.36" x2="32.99" y2="57.75" style="fill:none;stroke:#231f20;stroke-linecap:round;stroke-linejoin:round"/><line x1="21.5" y1="62.51" x2="4.3" y2="69.64" style="fill:none;stroke:#231f20;stroke-linecap:round;stroke-linejoin:round"/><text transform="translate(24.06 64.22)" style="font-size:12px;fill:#231f20;font-family:STIXTwoText-Italic, STIX Two Text;font-style:italic">d</text></g><g id="Medium_Diagonal" data-name="Medium Diagonal"><line x1="96.7" y1="31.36" x2="80.6" y2="31.36" style="fill:none;stroke:#231f20;stroke-linecap:round;stroke-linejoin:round"/><line x1="66.64" y1="31.36" x2="4.3" y2="31.36" style="fill:none;stroke:#231f20;stroke-linecap:round;stroke-linejoin:round"/><text transform="translate(68.52 34.17)" style="font-size:12px;fill:#231f20;font-family:STIXTwoText-Italic, STIX Two Text;font-style:italic">m</text></g><g id="Short_Diagonal" data-name="Short Diagonal"><line x1="69.64" y1="4.3" x2="32.45" y2="19.7" style="fill:none;stroke:#231f20;stroke-linecap:round;stroke-linejoin:round"/><line x1="22.35" y1="23.88" x2="4.3" y2="31.36" style="fill:none;stroke:#231f20;stroke-linecap:round;stroke-linejoin:round"/><text transform="translate(25.26 24.6)" style="font-size:12px;fill:#231f20;font-family:STIXTwoText-Italic, STIX Two Text;font-style:italic">s</text></g><g id="Height"><path d="M55,55" transform="translate(-4.5 -4.5)" style="fill:none;stroke:#231f20;stroke-linecap:round;stroke-linejoin:round"/><line x1="50.5" y1="14.54" x2="50.5" y2="4.3" style="fill:none;stroke:#231f20;stroke-linecap:round;stroke-linejoin:round"/><line x1="50.5" y1="28.87" x2="50.5" y2="96.7" style="fill:none;stroke:#231f20;stroke-linecap:round;stroke-linejoin:round"/><text transform="translate(47.18 25.96)" style="font-size:12px;fill:#231f20;font-family:STIXTwoText-Italic, STIX Two Text;font-style:italic">h</text></g><g id="Outline"><circle cx="50.5" cy="50.5" r="2" style="fill:#231f20"/><polyline points="31.36 4.3 69.64 4.3 96.7 31.36 96.7 69.64 69.64 96.7 31.36 96.7 4.3 69.64 4.3 31.36" style="fill:none;stroke:#231f20;stroke-linecap:round;stroke-linejoin:round"/></g></svg>