<svg xmlns="http://www.w3.org/2000/svg" viewBox="0 0 101 101"><g id="Circles"><circle cx="50.5" cy="50.5" r="50" style="fill:none;stroke:#231f20;stroke-linecap:round;stroke-linejoin:round;opacity:0.2"/><path d="M18,27.31a46.22,46.22,0,1,0,9.16-9.19" transform="translate(-4.5 -4.5)" style="fill:none;stroke:#231f20;stroke-linecap:round;stroke-linejoin:round;opacity:0.2"/></g><g id="Apothem"><text transform="translate(47.29 76.4)" style="font-size:12px;fill:#231f20;font-family:STIXTwoText-Italic, STIX Two Text;font-style:italic">a</text><line x1="50.5" y1="67.67" x2="50.5" y2="50.5" style="fill:none;stroke:#231f20;stroke-linecap:round;stroke-linejoin:round"/><line x1="50.5" y1="79.35" x2="50.5" y2="96.7" style="fill:none;stroke:#231f20;stroke-linecap:round;stroke-linejoin:round"/></g><g id="Circumradius"><line x1="50.5" y1="50.5" x2="43.75" y2="66.79" style="fill:none;stroke:#231f20;stroke-linecap:round;stroke-linejoin:round"/><line x1="38.09" y1="80.46" x2="31.36" y2="96.7" style="fill:none;stroke:#231f20;stroke-linecap:round;stroke-linejoin:round"/><text transform="translate(37.56 77.46)" style="font-size:12px;fill:#231f20;font-family:STIXTwoText-Italic, STIX Two Text;font-style:italic">R</text></g><g id="Side"><line x1="31.36" y1="4.3" x2="22.44" y2="13.22" style="fill:none;stroke:#000;stroke-linecap:round;stroke-linejoin:round"/><line x1="13.22" y1="22.44" x2="4.3" y2="31.36" style="fill:none;stroke:#000;stroke-linecap:round;stroke-linejoin:round"/><text transform="translate(15.69 20.64)" style="font-size:12px;fill:#231f20;font-family:STIXTwoText-Italic, STIX Two Text;font-style:italic">s</text></g><g id="Outline"><circle cx="50.5" cy="50.5" r="2" style="fill:#231f20"/><polyline points="4.3 31.36 4.3 69.64 31.36 96.7 69.64 96.7 96.7 69.64 96.7 31.36 69.64 4.3 31.36 4.3" style="fill:none;stroke:#231f20;stroke-linecap:round;stroke-linejoin:round"/></g></svg>