<svg xmlns="http://www.w3.org/2000/svg" viewBox="0 0 101 101"><g id="Circles"><circle cx="50.5" cy="50.5" r="50" style="fill:none;stroke:#000;stroke-linecap:round;stroke-linejoin:round;opacity:0.2"/><path d="M26.35,26.45A40.46,40.46,0,1,0,36.62,19" transform="translate(-4.5 -4.5)" style="fill:none;stroke:#000;stroke-linecap:round;stroke-linejoin:round;opacity:0.2"/></g><g id="Inradius"><text transform="translate(66.95 59.62)" style="font-size:12px;fill:#231f20;font-family:STIXTwoText-Italic, STIX Two Text;font-style:italic">r</text><line x1="88.97" y1="63" x2="73.1" y2="57.84" style="fill:none;stroke:#000;stroke-linecap:round;stroke-linejoin:round"/><line x1="64.87" y1="55.17" x2="50.5" y2="50.5" style="fill:none;stroke:#000;stroke-linecap:round;stroke-linejoin:round"/></g><g id="Circumradius"><text transform="translate(32.27 74.67)" style="font-size:12px;fill:#231f20;font-family:STIXTwoText-Italic, STIX Two Text;font-style:italic">R</text><line x1="50.5" y1="50.5" x2="40.19" y2="64.7" style="fill:none;stroke:#000;stroke-linecap:round;stroke-linejoin:round"/><line x1="30.95" y1="77.4" x2="21.11" y2="90.95" style="fill:none;stroke:#000;stroke-linecap:round;stroke-linejoin:round"/></g><g id="Diagonal"><line x1="98.05" y1="35.05" x2="32.29" y2="35.05" style="fill:none;stroke:#000;stroke-linecap:round;stroke-linejoin:round"/><line x1="21.57" y1="35.05" x2="2.95" y2="35.05" style="fill:none;stroke:#000;stroke-linecap:round;stroke-linejoin:round"/><text transform="translate(23.57 39.21)" style="font-size:12px;fill:#231f20;font-family:STIXTwoText-Italic, STIX Two Text;font-style:italic">d</text></g><g id="Side"><line x1="50.5" y1="0.5" x2="31.99" y2="13.95" style="fill:none;stroke:#000;stroke-linecap:round;stroke-linejoin:round"/><line x1="21.58" y1="21.51" x2="2.95" y2="35.05" style="fill:none;stroke:#000;stroke-linecap:round;stroke-linejoin:round"/><text transform="translate(23.51 20.58)" style="font-size:12px;fill:#231f20;font-family:STIXTwoText-Italic, STIX Two Text;font-style:italic">a</text></g><g id="Height"><text transform="translate(47.18 21.94)" style="font-size:12px;fill:#231f20;font-family:STIXTwoText-Italic, STIX Two Text;font-style:italic">h</text><line x1="50.5" y1="0.5" x2="50.5" y2="10.52" style="fill:none;stroke:#000;stroke-linecap:round;stroke-linejoin:round"/><line x1="50.5" y1="90.95" x2="50.5" y2="24.85" style="fill:none;stroke:#000;stroke-linecap:round;stroke-linejoin:round"/></g><g id="Outline"><polyline points="2.95 35.05 21.11 90.95 79.89 90.95 98.05 35.05 50.5 0.5" style="fill:none;stroke:#000;stroke-linecap:round;stroke-linejoin:round"/><circle cx="50.5" cy="50.5" r="2"/></g></svg>