<svg xmlns="http://www.w3.org/2000/svg" viewBox="0 0 89 101"><g id="Circles"><path d="M75.79,22.21a43.65,43.65,0,1,1-8.41-3.45" transform="translate(-10.5 -4.5)" style="fill:none;stroke:#000;stroke-linecap:round;stroke-linejoin:round;opacity:0.2"/><path d="M29.8,35.86a35.59,35.59,0,1,0,8.79-6.45" transform="translate(-10.5 -4.5)" style="fill:none;stroke:#000;stroke-linecap:round;stroke-linejoin:round;opacity:0.2"/></g><g id="Apothem"><line x1="44.5" y1="79.36" x2="44.5" y2="92.1" style="fill:none;stroke:#000;stroke-linecap:round;stroke-linejoin:round"/><line x1="44.5" y1="69.08" x2="44.5" y2="56.5" style="fill:none;stroke:#000;stroke-linecap:round;stroke-linejoin:round"/><text transform="translate(41.67 76.76)" style="font-size:10.5600004196167px;font-family:STIXTwoText-Italic, STIX Two Text;font-style:italic">a</text></g><g id="Circumradius"><line x1="27.3" y1="80.17" x2="18.64" y2="92.1" style="fill:none;stroke:#000;stroke-linecap:round;stroke-linejoin:round"/><line x1="44.5" y1="56.5" x2="35.42" y2="68.99" style="fill:none;stroke:#000;stroke-linecap:round;stroke-linejoin:round"/><text transform="translate(28.46 77.77)" style="font-size:10.5600004196167px;font-family:STIXTwoText-Italic, STIX Two Text;font-style:italic">R</text></g><g id="Interior_angle" data-name="Interior angle"><text transform="translate(41.53 32.52)" style="font-size:10.5600004196167px;font-family:STIXTwoText-Italic, STIX Two Text;font-style:italic">α</text><path d="M65.11,24.35a12.5,12.5,0,0,1-20.22,0" transform="translate(-10.5 -4.5)" style="fill:none;stroke:#000;stroke-linecap:round;stroke-linejoin:round"/></g><g id="Exterior_angle" data-name="Exterior angle"><text transform="translate(59.05 16.31)" style="font-size:10.5600004196167px;font-family:STIXTwoText-Italic, STIX Two Text;font-style:italic">β</text><path d="M65.11,9.65a12.5,12.5,0,0,1,0,14.7" transform="translate(-10.5 -4.5)" style="fill:none;stroke:#000;stroke-linecap:round;stroke-linejoin:round"/></g><g id="Side"><line x1="44.5" y1="12.5" x2="28.01" y2="24.48" style="fill:none;stroke:#000;stroke-linecap:round;stroke-linejoin:round"/><line x1="19.14" y1="30.93" x2="2.65" y2="42.9" style="fill:none;stroke:#000;stroke-linecap:round;stroke-linejoin:round"/><text transform="translate(21.69 30.17)" style="font-size:10.5600004196167px;fill:#231f20;font-family:STIXTwoText-Italic, STIX Two Text;font-style:italic">s</text></g><g id="Outline"><circle cx="44.5" cy="56.5" r="1.76"/><polyline points="2.65 42.9 18.64 92.1 70.36 92.1 86.35 42.9 44.5 12.5" style="fill:none;stroke:#000;stroke-linecap:round;stroke-linejoin:round"/><line x1="44.5" y1="12.5" x2="61.02" y2="0.5" style="fill:none;stroke:#000;stroke-linecap:round;stroke-linejoin:round"/></g></svg>