<svg xmlns="http://www.w3.org/2000/svg" viewBox="0 0 101 69"><g id="Height"><line x1="35.5" y1="31.99" x2="35.5" y2="18" style="stroke:#000;stroke-linecap:round;stroke-linejoin:round"/><line x1="35.5" y1="46.33" x2="35.5" y2="60.5" style="stroke:#000;stroke-linecap:round;stroke-linejoin:round"/><text transform="translate(32.18 43.42)" style="font-size:12px;font-family:STIXTwoText-Italic, STIX Two Text;font-style:italic">h</text></g><g id="Angle"><text transform="translate(85.59 58.63)" style="font-size:10px;font-family:STIXTwoText-Italic, STIX Two Text;font-style:italic">α</text><path d="M87.5,85a17.44,17.44,0,0,1,4.64-11.87" transform="translate(-4.5 -24.5)" style="fill:none;stroke:#000;stroke-linecap:round;stroke-linejoin:round"/></g><g id="Angle-2" data-name="Angle"><text transform="translate(33.63 13.54)" style="font-size:10px;font-family:STIXTwoText-Italic, STIX Two Text;font-style:italic">β</text><path d="M52.86,36.87a17.51,17.51,0,0,1-21.68,3.25" transform="translate(-4.5 -24.5)" style="fill:none;stroke:#000;stroke-linecap:round;stroke-linejoin:round"/></g><g id="Angle-3" data-name="Angle"><path d="M13.82,69.88A17.5,17.5,0,0,1,22.5,85" transform="translate(-4.5 -24.5)" style="fill:none;stroke:#000;stroke-linecap:round;stroke-linejoin:round"/><g id="Angle_g" data-name="Angle g"><text transform="translate(7.98 56.2)" style="isolation:isolate;font-size:10px;font-family:STIXTwoText-Italic, STIX Two Text;font-style:italic">γ</text></g></g><g id="Side"><line x1="14.78" y1="36.02" x2="0.5" y2="60.5" style="stroke:#000;stroke-linecap:round;stroke-linejoin:round"/><line x1="35.5" y1="0.5" x2="21.33" y2="24.79" style="stroke:#000;stroke-linecap:round;stroke-linejoin:round"/><text transform="translate(14.79 33.3)" style="font-size:12px;font-family:STIXTwoText-Italic, STIX Two Text;font-style:italic">a</text></g><g id="Side-2" data-name="Side"><line x1="100.5" y1="60.5" x2="56.03" y2="60.5" style="stroke:#000;stroke-linecap:round;stroke-linejoin:round"/><line x1="45.66" y1="60.5" x2="0.5" y2="60.5" style="stroke:#000;stroke-linecap:round;stroke-linejoin:round"/><text transform="translate(47.51 64.66)" style="font-size:12px;font-family:STIXTwoText-Italic, STIX Two Text;font-style:italic">b</text></g><g id="Side-3" data-name="Side"><line x1="100.5" y1="60.5" x2="71.99" y2="34.19" style="stroke:#000;stroke-linecap:round;stroke-linejoin:round"/><line x1="64.19" y1="26.98" x2="35.5" y2="0.5" style="stroke:#000;stroke-linecap:round;stroke-linejoin:round"/><text transform="translate(65.37 33.29)" style="font-size:12px;font-family:STIXTwoText-Italic, STIX Two Text;font-style:italic">c</text></g></svg>