<svg xmlns="http://www.w3.org/2000/svg" viewBox="0 0 100.8 78.06"><defs><style>.cls-1{fill:none;stroke:#231f20;stroke-linecap:round;stroke-linejoin:round;stroke-width:0.8px;}.cls-2{font-size:12px;}.cls-2,.cls-3{fill:#231f20;font-family:STIXTwoText-Italic, STIX Two Text;font-style:italic;}.cls-3{font-size:10px;}</style></defs><g id="Right_Angle" data-name="Right Angle"><polyline class="cls-1" points="35.4 60.9 35.4 52.9 43.4 52.9 43.4 60.9"/></g><g id="Height"><line class="cls-1" x1="35.4" y1="29.79" x2="35.4" y2="16.9"/><line class="cls-1" x1="35.4" y1="60.9" x2="35.4" y2="43.09"/><text class="cls-2" transform="translate(32.11 40.43)">h</text></g><g id="Angle_beta" data-name="Angle beta"><text class="cls-3" transform="translate(81.73 57.14)">β</text><path class="cls-1" d="M82.22,78.84a17.87,17.87,0,0,1-.1-1.94,17.47,17.47,0,0,1,6.32-13.47" transform="translate(-4.6 -17.94)"/></g><g id="Angle_alpha" data-name="Angle alpha"><path class="cls-1" d="M13.71,63.66A17.48,17.48,0,0,1,22.5,78.84" transform="translate(-4.6 -17.94)"/><text class="cls-3" transform="translate(7.07 57.66)">α</text></g><g id="Angle_gamma" data-name="Angle gamma"><path class="cls-1" d="M52.3,29.79a17.51,17.51,0,0,1-20.62,3" transform="translate(-4.6 -17.94)"/><text class="cls-3" transform="translate(34.45 12.1)">γ</text></g><g id="Side_c" data-name="Side c"><text class="cls-2" transform="translate(64.78 33.65)">c</text><line class="cls-1" x1="35.4" y1="0.4" x2="63.95" y2="26.97"/><line class="cls-1" x1="71.85" y1="34.33" x2="100.4" y2="60.9"/></g><g id="Side_a" data-name="Side a"><text class="cls-2" transform="translate(15.1 33.66)">a</text><line class="cls-1" x1="0.4" y1="60.9" x2="14.9" y2="35.64"/><line class="cls-1" x1="20.9" y1="25.51" x2="35.4" y2="0.4"/></g><g id="Base"><line class="cls-1" x1="100.4" y1="60.9" x2="0.4" y2="60.9"/><text class="cls-2" transform="translate(47.43 73.72)">b</text></g></svg>