<svg xmlns="http://www.w3.org/2000/svg" viewBox="0 0 100.9 68.34"><g id="Right_Angle" data-name="Right Angle"><g id="Right_Angle-2" data-name="Right Angle"><polyline points="27.45 60.95 27.45 52.95 35.45 52.95" style="fill:none;stroke:#231f20;stroke-linecap:round;stroke-linejoin:round;stroke-width:0.8999999761581421px"/></g></g><g id="Angle_a" data-name="Angle a"><path d="M13.71,68.55A17.49,17.49,0,0,1,22.5,83.73" transform="translate(-4.55 -22.78)" style="fill:none;stroke:#231f20;stroke-linecap:round;stroke-linejoin:round;stroke-width:0.8999999761581421px"/><text transform="translate(7.12 57.71)" style="isolation:isolate;font-size:10px;fill:#231f20;font-family:STIXTwoText-Italic, STIX Two Text;font-style:italic">α</text></g><g id="Angle_b" data-name="Angle b"><text transform="translate(81.78 57.19)" style="isolation:isolate;font-size:10px;fill:#231f20;font-family:STIXTwoText-Italic, STIX Two Text;font-style:italic">β</text><path d="M82.22,83.73a18,18,0,0,1-.1-1.94,17.45,17.45,0,0,1,6.32-13.47" transform="translate(-4.55 -22.78)" style="fill:none;stroke:#231f20;stroke-linecap:round;stroke-linejoin:round;stroke-width:0.8999999761581421px"/></g><g id="Angle_g" data-name="Angle g"><path d="M52.3,34.68a17.52,17.52,0,0,1-20.62,3" transform="translate(-4.55 -22.78)" style="fill:none;stroke:#231f20;stroke-linecap:round;stroke-linejoin:round;stroke-width:0.8999999761581421px"/><text transform="translate(34.5 12.15)" style="isolation:isolate;font-size:10px;fill:#231f20;font-family:STIXTwoText-Italic, STIX Two Text;font-style:italic">γ</text></g><g id="Height"><line x1="35.45" y1="28.84" x2="35.45" y2="16.98" style="fill:none;stroke:#231f20;stroke-linecap:round;stroke-linejoin:round;stroke-width:0.8999999761581421px"/><line x1="35.45" y1="60.95" x2="35.45" y2="43.14" style="fill:none;stroke:#231f20;stroke-linecap:round;stroke-linejoin:round;stroke-width:0.8999999761581421px"/><text transform="translate(32.16 40.01)" style="isolation:isolate;font-size:12px;fill:#231f20;font-family:STIXTwoText-Italic, STIX Two Text;font-style:italic">h</text></g><g id="Side_a" data-name="Side a"><text transform="translate(15.15 33.71)" style="isolation:isolate;font-size:12px;fill:#231f20;font-family:STIXTwoText-Italic, STIX Two Text;font-style:italic">a</text><line x1="0.45" y1="60.95" x2="14.95" y2="35.69" style="fill:none;stroke:#231f20;stroke-linecap:round;stroke-linejoin:round;stroke-width:0.8999999761581421px"/><line x1="20.95" y1="25.56" x2="35.45" y2="0.45" style="fill:none;stroke:#231f20;stroke-linecap:round;stroke-linejoin:round;stroke-width:0.8999999761581421px"/></g><g id="Side_b" data-name="Side b"><line x1="45.45" y1="60.95" x2="0.45" y2="60.95" style="fill:none;stroke:#231f20;stroke-linecap:round;stroke-linejoin:round;stroke-width:0.8999999761581421px"/><line x1="100.45" y1="60.95" x2="55.45" y2="60.95" style="fill:none;stroke:#231f20;stroke-linecap:round;stroke-linejoin:round;stroke-width:0.8999999761581421px"/><text transform="translate(47.29 63.99)" style="isolation:isolate;font-size:12px;fill:#231f20;font-family:STIXTwoText-Italic, STIX Two Text;font-style:italic">b</text></g><g id="Side_c" data-name="Side c"><text transform="translate(64.83 33.7)" style="isolation:isolate;font-size:12px;fill:#231f20;font-family:STIXTwoText-Italic, STIX Two Text;font-style:italic">c</text><line x1="35.45" y1="0.45" x2="64" y2="27.02" style="fill:none;stroke:#231f20;stroke-linecap:round;stroke-linejoin:round;stroke-width:0.8999999761581421px"/><line x1="71.9" y1="34.38" x2="100.45" y2="60.95" style="fill:none;stroke:#231f20;stroke-linecap:round;stroke-linejoin:round;stroke-width:0.8999999761581421px"/></g></svg>