<svg id="Layer_5" data-name="Layer 5" xmlns="http://www.w3.org/2000/svg" viewBox="0 0 83 72.28"><polygon points="28.17 59.23 21.5 70.78 1.5 36.14 21.5 1.5 28.17 13.05 14.83 36.14 28.17 59.23" style="fill:#efe9db;stroke:#000;stroke-linecap:round;stroke-linejoin:round;stroke-width:3px"/><polygon points="68.17 13.05 28.17 13.05 14.83 36.14 28.17 36.14 34.83 24.59 61.5 24.59 68.17 13.05" style="stroke:#000;stroke-linecap:round;stroke-linejoin:round;stroke-width:3px"/><polygon points="68.17 13.05 28.17 13.05 21.5 1.5 61.5 1.5 68.17 13.05" style="fill:#fff;stroke:#000;stroke-linecap:round;stroke-linejoin:round;stroke-width:3px"/><polygon points="81.5 36.14 74.83 24.59 34.83 24.59 41.5 36.14 81.5 36.14" style="fill:#fff;stroke:#000;stroke-linecap:round;stroke-linejoin:round;stroke-width:3px"/><polygon points="14.83 36.14 28.17 36.14 34.83 47.69 48.17 47.69 54.83 59.23 28.17 59.23 14.83 36.14" style="fill:#fff;stroke:#000;stroke-linecap:round;stroke-linejoin:round;stroke-width:3px"/><polygon points="61.5 47.69 54.83 59.23 48.17 47.69 61.5 47.69" style="fill:#efe9db;stroke:#000;stroke-linecap:round;stroke-linejoin:round;stroke-width:3px"/><polygon points="41.5 36.14 34.83 47.69 28.17 36.14 34.83 24.59 41.5 36.14" style="fill:#efe9db;stroke:#000;stroke-linecap:round;stroke-linejoin:round;stroke-width:3px"/><polygon points="41.5 36.14 81.5 36.14 61.5 70.78 21.5 70.78 28.17 59.23 54.83 59.23 61.5 47.69 34.83 47.69 41.5 36.14" style="stroke:#000;stroke-linecap:round;stroke-linejoin:round;stroke-width:3px"/></svg>